<?xml version="1.0" encoding="utf-8"?>
<!-- Generator: Adobe Illustrator 21.0.0, SVG Export Plug-In . SVG Version: 6.00 Build 0)  -->
<!DOCTYPE svg PUBLIC "-//W3C//DTD SVG 1.1//EN" "http://www.w3.org/Graphics/SVG/1.1/DTD/svg11.dtd">
<svg version="1.1" id="Layer_1" xmlns="http://www.w3.org/2000/svg" xmlns:xlink="http://www.w3.org/1999/xlink" x="0px" y="0px"
	 viewBox="0 0 730.1 250.6" style="enable-background:new 0 0 730.1 250.6;" xml:space="preserve">
<style type="text/css">
	.st0{fill-rule:evenodd;clip-rule:evenodd;fill:#007D32;}
</style>
<path d="M185.6,178.2h-35.7l-18.7-38.7h-12.7v38.7H86.9V63.1h51.5c30,0,45,12.5,45,37.5c0,16.3-6.9,27.5-20.8,33.7L185.6,178.2z
	 M151.5,101.5c0-3.9-1.1-6.9-3.4-9.1c-2.3-2.2-5.8-3.3-10.5-3.3h-19.1v25.1h18.7c5.1,0,8.7-1.1,11-3.2
	C150.3,108.9,151.5,105.7,151.5,101.5z"/>
<path d="M244.2,146.9c0,5.3-0.7,10.1-2.2,14.1s-3.5,7.5-6.1,10.2c-2.6,2.7-5.8,4.8-9.4,6.2c-3.6,1.4-7.7,2.1-12,2.1
	c-4.3,0-8.3-0.7-12-2.1c-3.6-1.4-6.8-3.5-9.4-6.2c-2.6-2.7-4.7-6.1-6.1-10.2s-2.2-8.8-2.2-14.1c0-5.4,0.7-10.1,2.2-14.2
	s3.5-7.5,6.1-10.1c2.6-2.7,5.7-4.7,9.3-6.1c3.6-1.4,7.6-2.1,12.1-2.1c4.5,0,8.5,0.7,12.1,2c3.6,1.4,6.7,3.4,9.3,6
	c2.6,2.7,4.7,6.1,6.1,10.2C243.5,136.7,244.2,141.5,244.2,146.9z M222.9,146.9c0-5.3-0.7-9.1-2.1-11.5c-1.4-2.4-3.5-3.6-6.3-3.6
	c-2.9,0-5,1.2-6.4,3.6c-1.4,2.4-2.1,6.2-2.1,11.5c0,5.2,0.7,9,2.1,11.5c1.4,2.5,3.5,3.7,6.4,3.7C220.1,162.1,222.9,157,222.9,146.9z
	"/>
<path d="M272.4,178.2h-21.4V100l21.4-8.5V178.2z"/>
<path d="M303.7,178.2h-21.4V100l21.4-8.5V178.2z"/>
<path d="M374.7,115.7l-30.3,84.5h-20.5l7.8-19.4L308,115.7h22.7l5.9,22.3c0.7,2.6,1.6,6.2,2.7,10.9c1,4.7,1.7,8.5,2.1,11.3
	c0.8-5.2,2.4-12.7,4.9-22.5l5.9-22H374.7z"/>
<path d="M426,158.4c0,4.7-1,8.6-3.1,11.8c-2.1,3.2-5,5.5-8.9,7c-3.9,1.5-8.5,2.3-13.8,2.3c-4.3,0-8.7-0.5-13.2-1.4
	c-4.5-0.9-8.8-2.2-12.9-3.8l5-16.1c4,1.7,7.9,3,11.7,4c3.8,1,7.1,1.5,9.9,1.5c3.8,0,5.7-1,5.7-2.9c0-1-0.3-1.8-1-2.4s-2-1.1-4-1.6
	c-5-1.3-9.1-2.6-12.3-3.8s-5.9-2.7-7.9-4.2c-2-1.6-3.5-3.5-4.4-5.7c-0.9-2.2-1.3-4.9-1.3-8.2c0-4.3,0.9-7.9,2.8-11
	c1.9-3.1,4.7-5.5,8.5-7.1c3.8-1.6,8.5-2.4,14.1-2.4c4.4,0,8.4,0.4,12.1,1.1c3.6,0.7,7.6,1.9,12,3.4l-4.8,16.5
	c-8-3.5-14.6-5.2-19.9-5.2c-2.1,0-3.4,0.2-4.2,0.6c-0.7,0.4-1.1,1.1-1.1,2.1c0,1,0.4,1.8,1.1,2.3c0.7,0.5,2.4,1.2,5.1,2
	c6.4,1.7,11.2,3.4,14.6,5c3.4,1.6,5.9,3.7,7.6,6.3C425.2,151.1,426,154.4,426,158.4z"/>
<path d="M457.1,100.6c0,3.2-1.2,5.7-3.5,7.7c-2.3,1.9-5.3,2.9-9,2.9c-3.5,0-6.5-1-8.8-2.9s-3.5-4.5-3.5-7.6c0-2,0.5-3.8,1.6-5.3
	c1.1-1.6,2.5-2.8,4.4-3.7c1.9-0.9,4-1.3,6.3-1.3c2.4,0,4.6,0.4,6.5,1.3c1.9,0.9,3.3,2.1,4.4,3.7C456.5,96.9,457.1,98.7,457.1,100.6z
	 M455.3,178.2h-21.4v-62.5h21.4V178.2z"/>
<path d="M519.3,178.2h-21.6v-4.4c-2.4,2-4.7,3.4-6.9,4.3c-2.1,0.9-4.8,1.4-7.9,1.4c-6.2,0-11.2-2.7-15-8c-3.8-5.3-5.7-13.5-5.7-24.5
	c0-7.4,0.8-13.5,2.5-18.3c1.7-4.9,4.1-8.5,7.4-10.8c3.2-2.4,7.1-3.5,11.6-3.5c2.9,0,5.4,0.5,7.6,1.5c2.2,1,4.3,2.3,6.3,4V100
	l21.6-8.5V178.2z M497.8,158.9V135c-2.4-2-4.9-3-7.6-3c-2.4,0-4.1,1-5.2,3c-1.1,2-1.6,5.8-1.6,11.4c0,3.9,0.3,7,0.8,9.4
	c0.5,2.3,1.3,3.9,2.3,4.8c1,0.9,2.3,1.3,3.9,1.3C492.9,161.9,495.4,160.9,497.8,158.9z"/>
<path d="M581.8,148.8c0,2,0,3.4-0.1,4.2h-36.6c0.3,3.3,1.5,5.8,3.3,7.5s4.3,2.5,7.3,2.5c2.8,0,5.4-0.4,7.9-1.1
	c2.5-0.7,5.3-1.8,8.3-3.4l8.3,13.7c-4.1,2.4-8.2,4.1-12.3,5.3s-8.6,1.8-13.2,1.8c-4.5,0-8.6-0.8-12.3-2.4c-3.7-1.6-6.8-3.8-9.3-6.7
	c-2.5-2.9-4.4-6.3-5.7-10.3c-1.3-4-1.9-8.3-1.9-13.2c0-6.9,1.2-12.9,3.6-17.8c2.4-4.9,5.8-8.6,10.1-11.1c4.3-2.5,9.3-3.7,14.8-3.7
	c8.7,0,15.5,2.9,20.5,8.7C579.4,128.9,581.8,137.5,581.8,148.8z M562.9,139.7c-0.5-3.4-1.5-5.8-2.9-7.3c-1.4-1.5-3.6-2.3-6.6-2.3
	c-4.8,0-7.6,3.2-8.3,9.5H562.9z"/>
<path d="M610.7,165.8c0,3.9-1.3,7.1-3.9,9.8c-2.6,2.6-5.8,4-9.8,4c-4,0-7.2-1.3-9.8-4c-2.6-2.6-3.9-5.9-3.9-9.8
	c0-3.9,1.3-7.1,3.9-9.6c2.6-2.5,5.9-3.8,9.8-3.8c2.6,0,4.9,0.6,7,1.7s3.7,2.7,4.9,4.8C610.1,160.9,610.7,163.2,610.7,165.8z"/>
<path d="M675.1,178.2h-21.6v-35.4c0-3.8-0.6-6.5-1.8-8c-1.2-1.5-3-2.2-5.4-2.2c-2.4,0-4.2,0.7-5.4,2.2c-1.2,1.5-1.8,4.1-1.8,7.8
	v35.6h-21.4v-62.5h21.4v4.1c4.8-3.7,10.1-5.5,15.7-5.5c4.5,0,8.3,1,11.3,3c3,2,5.2,4.9,6.7,8.6c1.5,3.8,2.2,8.5,2.2,14V178.2z"/>
<path d="M705.3,178.2h-21.4V100l21.4-8.5V178.2z"/>
<path class="st0" d="M185.2,28.1c16.1,7.4,26.4,19,36.7,32.7c4.8,6.8,8.9,14.2,13,21.8c-0.2,1-0.5,2.5-1.9,2.7
	c0.4,3.2,3.4,6.2,2.7,9.4c-0.9,1.6-3.5,1.6-3.1,3.7c-1.7-0.6,0.2-2.1-1.6-2.4c-1.6,1.5-2.7,4.4-5.2,3.8c-2.4-3.1-7.3,0-8.4-4.4
	c1.1-0.5-0.3-2.1-0.4-3.2l-4.5-8.3l-0.1,0.3c0.3,0.1-0.7-1.7-1.3-2.4l-0.3,0.2c-0.2-1.4-0.9-3.1-2.1-3.6l0.3-0.5
	c-3-5.6-9.2-10.3-12.3-15.4c-2.7-1.9-5.3-5.6-8.8-7.4c-2.2-2-4.2-3.5-6.9-4.3c-1.9-3.5-6.9-1.8-9-5.3c-7.8-2.5-14.5-6.5-22.5-8.2
	c-11.3-2.9-22.8-1.8-34.2-0.6c-9.1,1.4-18.5,5.9-27.6,9.7c-2.8,3.1-7.2,4.2-9.9,7.2c-6.3,3.9-11.2,8.5-16.4,13.4l0.2,0.3
	c-3.6,4.7-7.2,10.4-10.5,14.9c-1.5,4.6-3.2,7.4-4.3,11.6c0.1,0.5-2.1,2.7-1.1,3.9C44,102,43,106.8,43,111.5
	c-1.2,0.8-0.6,3.8-1.4,5.2c1.3,2.1-1.7,2,0.2,4.2c-0.7,3-0.5,5.6-0.2,9.1c-0.3,2.5,0.4,4.5,1,6.2c-0.6,1.7,0.2,5,0.9,7.7
	c-0.8,1.4,0,3.7,0.8,4.6c1,3.9,2.1,7.2,4.2,10.8c-0.2,3.4,1.7,3.2,1.8,6.1l1.6,2.2l-0.3-0.1c2.8,5,4.4,8.8,8.6,13.3l0.3-0.2
	c0,1,1.1,2,2,3l0.3-0.2c2.1,4.9,7.4,5.7,10.2,10.5c2.3,1.3,4.4,3.5,6.5,5c8.9,6.9,20.7,11.2,32.2,15c2.1-1.4,3.7,2.1,6.4,0.6
	l4.3,0.6l0.1-0.5c1.3,1.1,4.2-0.2,6.2,0.5c2,0.2,4.4-0.1,5.9-0.8l-0.1,0.5c1.6,0.9,3.7-1.3,5.4-1.2c2.6,0.1,4.6,0.2,6.9-0.4
	l-0.2-0.3c7.1-1.3,14.9-3.8,20.5-8.1c1.5,0.3,4.2-1.4,6-2.3c4.5-1.4,9.1-3.7,12.3-6.2c7.8-4.6,14.2-11.8,20.8-19.2l1.1-0.3
	c-0.4,3.1-2.3,5.8-4.6,6.6l-2.8,3.3c2.2,0.7-0.5,1.2,0,2.4c-3.1,2.2-6.5,5.9-9.8,8c1.3,1.3-1.2,1.8-1.9,2.7
	c-0.2-0.1-0.7-0.2-0.9,0.3l-0.2,0.8c2.1,1.2,2.1-1.2,3.3-1.9c1.7-1.7,4.2-1.4,5.1-3.3l1.5,0.3l0,0.3c2.4,0.8,1.3-3.4,3.8-2
	c1.2-3.1,4.6-2.9,7.3-3.7c0.3,1.1-1.4,2.6-2.5,3.4c1.2,1.6-0.9,1.9-1.4,2.8c-2.5-0.5-2.8,2.2-4.5,2.7c0.1,0.6-0.3,1.5,0.4,1.6
	c2.5-0.8,4-3.8,6.6-4c0.4-0.4,2.6-1,1.1-2.6c2.8,1.1,2.8-3.3,5.2-2.3c0.8-1.4,2.5-3.1,4.3-3c-0.8,2.7-2.9,3.8-3.9,6.2
	c1.6,1.1,0.1,2.1-0.3,2.8l-1-0.2c-0.2,0.7-0.1,1.5-1.1,1.6c-0.4-0.4-0.7-0.4-1.2-0.8l-0.5,0.1c0.1,1.6,1.3,2.6,2.7,3
	c-0.1,1.5-1.3,2.3-2,3c-1.8,0.1-2.1,0.3-2.5,2c-2.1,1.4-4.4,3.2-6,5c-1.8,0.1-2.8,0.9-4.3,1.9c-0.4,3.1-3.6,3.1-5,4.9
	c-8.3,4.5-18.7,9.8-27.8,12c-0.5,1.2-3.2,0.4-4.9,1c-5.1,2-12,2.6-16.5,3c-0.7-0.4-1.2,0.5-1.6,0.4l-0.1,0.5c-3-2-7.6,1.5-10.8,0.3
	c-6.5-0.1-13.5-0.1-19.9-1.9l-0.1,0.5c-12.7-3-26.1-8-37-14.2c-4.3-2-7.4-5.5-11.6-7.7c0.1-1.5-1.4-0.8-2.2-1.8
	c-9.3-8.5-16.3-17.6-24.5-29c-0.5-2.5-2.2-5.5-2.5-7.6l-0.3,0.2c0.1-1.8-3.6-5-3.2-8.3c-1.6-1.1-2.9-4.8-2.5-6.5
	c-0.8-1-1.3-4.7-2.4-6.8l0.2,0.1c0.7-0.9-0.9-3.3-1.2-3.1c0-4.9-2.4-10.7-2.1-15.6c-0.4-4-1.1-5.7-0.8-9.5c0.8-2.4,0.1-3.9,0.5-7.2
	c-0.7-0.4,0.8-2.4,0-3.6c1-3.7,1.8-8.2,2.5-12.7l-0.5-0.1c1.3-0.2,1.1-3.9,1.9-5c-1.3-2.4,2.3-5.8,2-7.9c0.5,0.1,0.9-0.3,1.2-0.5
	c-0.2-0.3-0.4-0.3-0.7-0.4c2.3-3.2,3.3-6.8,5-9.9c-1.4-1.9,2.1-2.7,0.4-3.3c1.7-2,3.6-5.7,5-7.5l-0.5-0.1c1.5-1,1.9-3.8,3.9-4.6
	c2.2-6.8,7.9-9,12.2-15.3C62.9,38.7,70,31.1,82,26.1c5.2-3.6,13-4.5,18-7.3c4.5-0.3,7.5-2,12.2-2.3c1.7,0.4,3.2-1.7,4.7-0.3l0.7-0.9
	c4.7-0.2,10.8-0.5,15.3-1.1c4,2.2,7.3,0.3,10.9,1.3c6.6,0.9,14.1,2.3,20.6,3.7l0-0.2C171.8,22.9,179,23.1,185.2,28.1L185.2,28.1z"/>
<g>
	<path d="M398.2,212.7v-18.9H417v2.8h-15.2v5.8h8.6v2.8h-8.6v7.5H398.2z"/>
	<path d="M438.7,196.6h-13.2v13.2h13.2v-4.5l3.6,0.7v2.2c0,1.7-0.3,2.9-1,3.5c-0.7,0.6-1.9,0.9-3.7,0.9h-11.1c-1.8,0-3-0.3-3.7-0.9
		s-0.9-1.8-0.9-3.5v-9.9c0-1.8,0.3-2.9,1-3.6c0.6-0.6,1.8-0.9,3.6-0.9h11.1c1.8,0,3,0.3,3.7,0.9c0.7,0.6,1,1.8,1,3.6v1.8l-3.6,0.6
		V196.6z"/>
	<path d="M484.5,196.6h-14.9v13.2h14.9v-5.1h-7.7v-2.6h11.3v6.1c0,1.7-0.3,2.9-1,3.5c-0.7,0.6-1.9,0.9-3.7,0.9h-12.8
		c-1.8,0-3-0.3-3.7-0.9c-0.6-0.6-1-1.8-1-3.5v-9.9c0-1.7,0.3-2.9,1-3.5c0.7-0.6,1.9-1,3.7-1h12.8c1.7,0,2.9,0.3,3.6,0.9
		c0.7,0.6,1,1.7,1,3.3v0.5l-3.6,0.6V196.6z"/>
	<path d="M496,212.7v-18.9h15.2c2.6,0,4,1.2,4,3.7v4.2c0,2.4-1.3,3.6-4,3.6h-2.5l8.3,7.4h-4.8l-7.5-7.4h-5.2v7.4H496z M509.6,196.5
		h-10.1v6.1h10.1c0.9,0,1.5-0.2,1.8-0.7c0.1-0.3,0.2-0.7,0.2-1.2v-2.3C511.6,197.2,510.9,196.5,509.6,196.5z"/>
	<path d="M522.8,198.3c0-1.7,0.3-2.9,1-3.5c0.7-0.6,1.9-1,3.7-1h13.6c1.8,0,3,0.3,3.7,1c0.7,0.6,1,1.8,1,3.5v9.9
		c0,1.7-0.3,2.9-1,3.5c-0.7,0.6-1.9,0.9-3.7,0.9h-13.6c-1.8,0-3-0.3-3.7-0.9c-0.6-0.6-1-1.8-1-3.5V198.3z M526.4,209.8h15.8v-13.2
		h-15.8V209.8z"/>
	<path d="M557,197.6c0.2,1.1,0.3,2.2,0.3,3.4v11.7H554v-18.9h2.7l13.8,12.3c0.9,0.8,1.6,1.6,2.3,2.6c-0.2-1.1-0.3-2.3-0.3-3.5v-11.4
		h3.3v18.9h-2.4l-14.1-12.5C558.3,199.3,557.6,198.5,557,197.6z"/>
	<path d="M588,212.7h-3.6v-18.9h3.6V212.7z"/>
	<path d="M599.7,197.6c0.2,1.1,0.3,2.2,0.3,3.4v11.7h-3.3v-18.9h2.7l13.8,12.3c0.9,0.8,1.6,1.6,2.3,2.6c-0.2-1.1-0.3-2.3-0.3-3.5
		v-11.4h3.3v18.9H616l-14.1-12.5C601,199.3,600.2,198.5,599.7,197.6z"/>
	<path d="M645.2,196.6h-14.9v13.2h14.9v-5.1h-7.7v-2.6h11.3v6.1c0,1.7-0.3,2.9-1,3.5c-0.7,0.6-1.9,0.9-3.7,0.9h-12.8
		c-1.8,0-3-0.3-3.7-0.9c-0.6-0.6-1-1.8-1-3.5v-9.9c0-1.7,0.3-2.9,1-3.5c0.7-0.6,1.9-1,3.7-1h12.8c1.7,0,2.9,0.3,3.6,0.9
		c0.7,0.6,1,1.7,1,3.3v0.5l-3.6,0.6V196.6z"/>
	<path d="M656.7,212.7v-18.9h19v2.8h-15.5v4.9h9.3v2.8h-9.3v5.6h15.6v2.8H656.7z"/>
	<path d="M685.6,197.6c0.2,1.1,0.3,2.2,0.3,3.4v11.7h-3.3v-18.9h2.7l13.8,12.3c0.9,0.8,1.6,1.6,2.3,2.6c-0.2-1.1-0.3-2.3-0.3-3.5
		v-11.4h3.3v18.9h-2.4l-14.1-12.5C686.9,199.3,686.1,198.5,685.6,197.6z"/>
</g>
</svg>
